<mxfile host="65bd71144e">
    <diagram id="18F-WJ6rgNCERphc_Y9G" name="Página-1">
        <mxGraphModel dx="728" dy="451" grid="1" gridSize="10" guides="1" tooltips="1" connect="1" arrows="1" fold="1" page="1" pageScale="1" pageWidth="827" pageHeight="1169" math="0" shadow="0">
            <root>
                <mxCell id="0"/>
                <mxCell id="1" parent="0"/>
                <mxCell id="3" value="Topológica" style="rounded=0;whiteSpace=wrap;html=1;fontFamily=Tahoma;" vertex="1" parent="1">
                    <mxGeometry x="250" y="90" width="190" height="30" as="geometry"/>
                </mxCell>
                <mxCell id="4" value="-ordenar()" style="rounded=0;whiteSpace=wrap;html=1;fontFamily=Tahoma;align=left;" vertex="1" parent="1">
                    <mxGeometry x="250" y="160" width="190" height="50" as="geometry"/>
                </mxCell>
                <mxCell id="6" value="-Array" style="rounded=0;whiteSpace=wrap;html=1;fontFamily=Tahoma;align=left;" vertex="1" parent="1">
                    <mxGeometry x="250" y="120" width="190" height="40" as="geometry"/>
                </mxCell>
            </root>
        </mxGraphModel>
    </diagram>
</mxfile>